# xmcd
# Track frame offsets:
# 150
# 24885
# 57477
# 80610
# 107777
# 115652
# 138857
# 172902
# 186762
# 210565
#
# Disc length: 3026 seconds
# Revision: 0
# Processed by: cddbd v1.5.1PL0 Copyright (c) Steve Scherf et al.
# Submitted via: VisiTrax 2.9.10.220 - For more info visit www.synapsa.com
#
DISCID=7c0bd00a
DTITLE=Toronto Mass Choir - Toronto Mass Choir God is our hope
DYEAR=1993
DGENRE=Gospel
TTITLE0=Jesus is all the world to me
TTITLE1=God is our hope
TTITLE2=What kind of grace is this
TTITLE3=Jesus you´r precious
TTITLE4=I woke up this morning
TTITLE5=Caribbean praise
TTITLE6=I need a touch
TTITLE7=Hallowed be thy name
TTITLE8=We´ve come to worship you
TTITLE9=God´s so real
EXTD=
EXTT0=
EXTT1=
EXTT2=
EXTT3=
EXTT4=
EXTT5=
EXTT6=
EXTT7=
EXTT8=
EXTT9=
PLAYORDER=
